<svg width="202" height="50" viewBox="0 0 202 50" fill="none" xmlns="http://www.w3.org/2000/svg">
<g clip-path="url(#clip0_626_6309)">
<path d="M21.5546 49.5447L21.9991 49.5069L22.4821 49.4499L22.9974 49.3866L23.3709 49.3233L24.0149 49.2158L24.2596 49.1587C24.5043 49.1082 24.749 49.0576 24.9939 48.9944L25.1035 48.9627C27.5833 48.3277 29.9135 47.2233 31.9626 45.7117L32.0078 45.6738C32.2395 45.503 32.4779 45.326 32.7033 45.1362L33.1219 44.7821L33.4181 44.5291V44.5288C35.4241 42.7467 37.0394 40.5819 38.1656 38.1668C39.2919 35.7513 39.9052 33.1358 39.9681 30.4802C40.0106 30.1357 40.0106 29.7875 39.9681 29.443C39.9681 29.0762 39.9681 28.7029 39.9229 28.3423C39.8936 28.0638 39.6814 27.8374 39.4014 27.7857C38.7818 26.7304 37.7472 25.9725 36.5408 25.6902C35.3347 25.4078 34.0633 25.6261 33.0256 26.2933C31.9882 26.9606 31.2766 28.0181 31.0581 29.2171C30.8393 30.4158 31.1334 31.6501 31.8706 32.6296C32.6079 33.609 33.7232 34.2468 34.9544 34.3931C36.1856 34.5394 37.4236 34.1811 38.3773 33.4026C37.7212 36.8166 36.088 39.9761 33.6694 42.511L28.195 37.1407V37.141C29.7956 35.3874 30.7623 33.1639 30.9451 30.8157C30.9575 30.6415 30.896 30.4698 30.7752 30.3416C30.6544 30.2137 30.4851 30.1399 30.3074 30.1388C29.9537 30.1134 29.6458 30.3735 29.6182 30.7208C29.4601 32.7677 28.6231 34.7074 27.2352 36.2428L22.6495 31.7391C23.0141 31.2288 23.2139 30.6229 23.2228 29.9996C23.224 29.0537 22.7939 28.1571 22.0506 27.5554C21.3073 26.9539 20.3289 26.7105 19.3839 26.8924C18.4388 27.0739 17.6259 27.6619 17.1685 28.4943C16.7113 29.3268 16.6573 30.3165 17.0216 31.1921C17.3859 32.0678 18.13 32.7373 19.0501 33.0172C19.9701 33.297 20.9693 33.1575 21.7738 32.6374L26.3528 37.1345C24.3023 38.9065 21.5837 39.7429 18.8701 39.4371C16.1568 39.131 13.7019 37.7115 12.1133 35.5292C10.5248 33.3472 9.95086 30.6067 10.5337 27.9858C11.1168 25.365 12.8019 23.1094 15.1723 21.7765C15.2718 21.7147 15.352 21.6272 15.404 21.5235C16.8198 20.7848 18.3997 20.4025 20.0027 20.4104C22.7154 20.4132 25.3058 21.519 27.158 23.4655C27.4052 23.6925 27.7894 23.6931 28.0372 23.4663C28.2847 23.2399 28.3115 22.8635 28.0984 22.6051C25.5602 19.9264 21.8184 18.684 18.1462 19.3004C14.4734 19.9168 11.3644 22.3091 9.87589 25.6638C8.38736 29.0185 8.72064 32.884 10.7614 35.9455C12.8025 39.0071 16.2767 40.8524 20.0026 40.8538C22.7064 40.8544 25.3149 39.872 27.3255 38.0961L32.7292 43.4094C32.4394 43.6686 32.1495 43.9281 31.8468 44.1684L31.3767 44.5352L31.1576 44.7061C29.4716 45.9409 27.5863 46.8883 25.58 47.5082H25.5415C25.2968 47.5841 25.0455 47.6536 24.7879 47.7168L24.6398 47.7547C24.4273 47.8117 24.2082 47.8558 23.9958 47.9066L23.7318 47.9636C23.5516 48.0015 23.3713 48.0269 23.1844 48.0585L22.8043 48.1218L22.3598 48.1788L21.8704 48.2421H21.4903C21.3034 48.2421 21.1231 48.2737 20.9365 48.2799C20.7496 48.2861 20.5694 48.2799 20.3891 48.2799H20.0027C15.9124 48.2551 11.9436 46.9123 8.70567 44.4579C5.46791 42.0035 3.13983 38.5728 2.07947 34.693C1.01881 30.8131 1.28416 26.6986 2.83511 22.9814C4.38598 19.2642 7.13647 16.1498 10.6638 14.1166L10.8507 14.009C11.2434 13.7938 11.6428 13.5852 12.0551 13.3765L12.2291 13.3005H12.2288C13.0953 12.9162 13.9913 12.5988 14.9082 12.3517C18.7863 11.2742 22.9157 11.4577 26.6784 12.8747C30.4418 14.2919 33.6373 16.8664 35.7879 20.2142C35.9782 20.5096 36.3761 20.5971 36.6769 20.4105C36.9773 20.2236 37.0668 19.8327 36.8764 19.5374C34.5912 15.9805 31.2019 13.2395 27.209 11.7186C23.2162 10.198 18.8313 9.97855 14.702 11.0928L14.5861 11.1306V11.1309C13.5973 11.4062 12.631 11.753 11.6942 12.1681L11.5073 12.2503C11.0694 12.4528 10.6379 12.6742 10.2192 12.8828L10.0197 12.9966V12.9969C6.20287 15.1503 3.2175 18.4825 1.52855 22.4748C-0.16063 26.4671 -0.459101 30.8958 0.679505 35.0719C1.8184 39.2481 4.3302 42.937 7.82499 45.5662C11.3196 48.1951 15.6007 49.616 20.003 49.6079H20.3958H21.0076C21.2075 49.6079 21.3685 49.5573 21.5551 49.5446L21.5546 49.5447ZM35.4594 33.1625C34.6213 33.1597 33.8171 32.8361 33.2182 32.2604C32.619 31.6849 32.272 30.9024 32.251 30.0792C32.23 29.2564 32.5365 28.4578 33.1054 27.8532C33.6742 27.2487 34.4608 26.8858 35.2978 26.8418C36.1348 26.7977 36.9562 27.0759 37.5876 27.6172C38.219 28.1585 38.6109 28.9201 38.6796 29.7407V29.9999V30.2024C38.6273 31.0055 38.265 31.7589 37.6666 32.309C37.0683 32.8591 36.2788 33.1643 35.4594 33.1626L35.4594 33.1625ZM18.0701 29.9999C18.0675 29.3676 18.3855 28.7757 18.9183 28.4211C19.4513 28.0667 20.129 27.9958 20.7259 28.2327C21.3225 28.4693 21.7602 28.9824 21.893 29.6012C22.0255 30.2196 21.8357 30.8625 21.3869 31.3155H21.3547C20.9936 31.6634 20.5082 31.8582 20.0025 31.8585C19.497 31.8585 19.0114 31.6639 18.65 31.3166C18.2886 30.969 18.0804 30.4963 18.0701 29.9999Z" fill="#DB1E35"/>
</g>
<path d="M64.12 39.72V38.112C62.424 38.112 60.984 37.8 59.8 37.176C58.616 36.536 57.72 35.656 57.112 34.536C56.504 33.4 56.2 32.088 56.2 30.6V30.12C56.2 28.696 56.504 27.464 57.112 26.424C57.72 25.368 58.616 24.552 59.8 23.976C60.984 23.384 62.424 23.088 64.12 23.088V21.48H67V23.088C68.696 23.088 70.128 23.384 71.296 23.976C72.48 24.552 73.376 25.368 73.984 26.424C74.608 27.464 74.92 28.696 74.92 30.12V30.6C74.92 32.088 74.608 33.4 73.984 34.536C73.376 35.656 72.48 36.536 71.296 37.176C70.128 37.8 68.696 38.112 67 38.112V39.72H64.12ZM71.896 30.6V30.12C71.896 29.144 71.712 28.328 71.344 27.672C70.992 27 70.448 26.496 69.712 26.16C68.992 25.808 68.088 25.632 67 25.632V35.568C68.104 35.568 69.016 35.376 69.736 34.992C70.456 34.592 70.992 34.024 71.344 33.288C71.712 32.552 71.896 31.656 71.896 30.6ZM59.224 30.12V30.6C59.224 31.656 59.4 32.552 59.752 33.288C60.12 34.024 60.664 34.592 61.384 34.992C62.12 35.376 63.032 35.568 64.12 35.568V25.632C63.032 25.632 62.12 25.808 61.384 26.16C60.664 26.496 60.12 27 59.752 27.672C59.4 28.328 59.224 29.144 59.224 30.12ZM76.9478 39.264C76.8198 39.264 76.6758 39.256 76.5158 39.24C76.3718 39.24 76.2358 39.224 76.1078 39.192V36.696C76.1558 36.712 76.2758 36.72 76.4678 36.72C76.9158 36.72 77.2758 36.528 77.5478 36.144C77.8358 35.76 78.0438 35.096 78.1718 34.152C78.3158 33.192 78.3878 31.848 78.3878 30.12V26.28H87.9878V39H85.3478V28.536H80.9318V30.6C80.9318 32.296 80.8438 33.712 80.6678 34.848C80.5078 35.968 80.2598 36.848 79.9238 37.488C79.5878 38.128 79.1718 38.584 78.6758 38.856C78.1798 39.128 77.6038 39.264 76.9478 39.264ZM95.0641 39.264C94.1521 39.264 93.3681 39.096 92.7121 38.76C92.0721 38.408 91.5841 37.928 91.2481 37.32C90.9121 36.712 90.7441 36.032 90.7441 35.28C90.7441 34.016 91.1201 33.08 91.8721 32.472C92.6241 31.848 93.7281 31.536 95.1841 31.536H99.1441V30.84C99.1441 29.88 98.9281 29.224 98.4961 28.872C98.0801 28.504 97.4161 28.32 96.5041 28.32C95.6881 28.32 95.0881 28.448 94.7041 28.704C94.3201 28.96 94.0961 29.312 94.0321 29.76H91.4641C91.5121 29.024 91.7441 28.376 92.1601 27.816C92.5761 27.256 93.1601 26.816 93.9121 26.496C94.6801 26.176 95.5841 26.016 96.6241 26.016C97.6641 26.016 98.5681 26.176 99.3361 26.496C100.12 26.816 100.72 27.32 101.136 28.008C101.568 28.68 101.784 29.576 101.784 30.696V35.76C101.784 36.432 101.792 37.024 101.808 37.536C101.824 38.032 101.864 38.52 101.928 39H99.5281C99.4801 38.632 99.4401 38.32 99.4081 38.064C99.3921 37.808 99.3841 37.488 99.3841 37.104C99.0801 37.696 98.5521 38.208 97.8001 38.64C97.0641 39.056 96.1521 39.264 95.0641 39.264ZM95.7841 36.96C96.3921 36.96 96.9441 36.856 97.4401 36.648C97.9521 36.44 98.3601 36.128 98.6641 35.712C98.9841 35.296 99.1441 34.792 99.1441 34.2V33.504H95.6641C94.9921 33.504 94.4481 33.648 94.0321 33.936C93.6321 34.224 93.4321 34.648 93.4321 35.208C93.4321 35.736 93.6161 36.16 93.9841 36.48C94.3681 36.8 94.9681 36.96 95.7841 36.96ZM105.032 39V26.28H107.672V35.28L113.792 26.28H116.312V39H113.672V30L107.552 39H105.032ZM110.672 24.84C109.344 24.84 108.368 24.552 107.744 23.976C107.136 23.384 106.832 22.552 106.832 21.48H109.28C109.28 22.056 109.392 22.472 109.616 22.728C109.856 22.984 110.208 23.112 110.672 23.112C111.136 23.112 111.48 22.984 111.704 22.728C111.944 22.472 112.064 22.056 112.064 21.48H114.512C114.512 22.552 114.2 23.384 113.576 23.976C112.952 24.552 111.984 24.84 110.672 24.84ZM122.68 39V28.536H118.48V26.28H129.52V28.536H125.32V39H122.68ZM131.68 43.8V26.28H134.128V28.416C134.512 27.68 135.08 27.096 135.832 26.664C136.6 26.232 137.464 26.016 138.424 26.016C140.088 26.016 141.4 26.536 142.36 27.576C143.32 28.616 143.8 30.184 143.8 32.28V32.76C143.8 34.2 143.576 35.408 143.128 36.384C142.68 37.344 142.056 38.064 141.256 38.544C140.456 39.024 139.512 39.264 138.424 39.264C137.512 39.264 136.68 39.064 135.928 38.664C135.176 38.264 134.64 37.704 134.32 36.984V43.8H131.68ZM137.8 36.96C138.792 36.96 139.592 36.616 140.2 35.928C140.808 35.24 141.112 34.184 141.112 32.76V32.28C141.112 30.936 140.816 29.944 140.224 29.304C139.632 28.648 138.824 28.32 137.8 28.32C137.208 28.32 136.64 28.448 136.096 28.704C135.568 28.96 135.136 29.336 134.8 29.832C134.48 30.328 134.32 30.944 134.32 31.68V33.36C134.32 34.16 134.48 34.832 134.8 35.376C135.136 35.904 135.568 36.304 136.096 36.576C136.624 36.832 137.192 36.96 137.8 36.96ZM150.166 39.264C149.254 39.264 148.47 39.096 147.814 38.76C147.174 38.408 146.686 37.928 146.35 37.32C146.014 36.712 145.846 36.032 145.846 35.28C145.846 34.016 146.222 33.08 146.974 32.472C147.726 31.848 148.83 31.536 150.286 31.536H154.246V30.84C154.246 29.88 154.03 29.224 153.598 28.872C153.182 28.504 152.518 28.32 151.606 28.32C150.79 28.32 150.19 28.448 149.806 28.704C149.422 28.96 149.198 29.312 149.134 29.76H146.566C146.614 29.024 146.846 28.376 147.262 27.816C147.678 27.256 148.262 26.816 149.014 26.496C149.782 26.176 150.686 26.016 151.726 26.016C152.766 26.016 153.67 26.176 154.438 26.496C155.222 26.816 155.822 27.32 156.238 28.008C156.67 28.68 156.886 29.576 156.886 30.696V35.76C156.886 36.432 156.894 37.024 156.91 37.536C156.926 38.032 156.966 38.52 157.03 39H154.63C154.582 38.632 154.542 38.32 154.51 38.064C154.494 37.808 154.486 37.488 154.486 37.104C154.182 37.696 153.654 38.208 152.902 38.64C152.166 39.056 151.254 39.264 150.166 39.264ZM150.886 36.96C151.494 36.96 152.046 36.856 152.542 36.648C153.054 36.44 153.462 36.128 153.766 35.712C154.086 35.296 154.246 34.792 154.246 34.2V33.504H150.766C150.094 33.504 149.55 33.648 149.134 33.936C148.734 34.224 148.534 34.648 148.534 35.208C148.534 35.736 148.718 36.16 149.086 36.48C149.47 36.8 150.07 36.96 150.886 36.96ZM158.933 42V36.744H160.373C160.597 36.408 160.789 35.888 160.949 35.184C161.109 34.464 161.229 33.64 161.309 32.712C161.405 31.784 161.453 30.84 161.453 29.88V26.28H170.933V36.744H172.613V42H170.165V39H161.381V42H158.933ZM163.061 36.744H168.293V28.536H163.997V30.36C163.997 31.592 163.925 32.776 163.781 33.912C163.637 35.032 163.397 35.976 163.061 36.744ZM178.853 39.264C177.941 39.264 177.157 39.096 176.501 38.76C175.861 38.408 175.373 37.928 175.037 37.32C174.701 36.712 174.533 36.032 174.533 35.28C174.533 34.016 174.909 33.08 175.661 32.472C176.413 31.848 177.517 31.536 178.973 31.536H182.933V30.84C182.933 29.88 182.717 29.224 182.285 28.872C181.869 28.504 181.205 28.32 180.293 28.32C179.477 28.32 178.877 28.448 178.493 28.704C178.109 28.96 177.885 29.312 177.821 29.76H175.253C175.301 29.024 175.533 28.376 175.949 27.816C176.365 27.256 176.949 26.816 177.701 26.496C178.469 26.176 179.373 26.016 180.413 26.016C181.453 26.016 182.357 26.176 183.125 26.496C183.909 26.816 184.509 27.32 184.925 28.008C185.357 28.68 185.573 29.576 185.573 30.696V35.76C185.573 36.432 185.581 37.024 185.597 37.536C185.613 38.032 185.653 38.52 185.717 39H183.317C183.269 38.632 183.229 38.32 183.197 38.064C183.181 37.808 183.173 37.488 183.173 37.104C182.869 37.696 182.341 38.208 181.589 38.64C180.853 39.056 179.941 39.264 178.853 39.264ZM179.573 36.96C180.181 36.96 180.733 36.856 181.229 36.648C181.741 36.44 182.149 36.128 182.453 35.712C182.773 35.296 182.933 34.792 182.933 34.2V33.504H179.453C178.781 33.504 178.237 33.648 177.821 33.936C177.421 34.224 177.221 34.648 177.221 35.208C177.221 35.736 177.405 36.16 177.773 36.48C178.157 36.8 178.757 36.96 179.573 36.96ZM188.821 43.8V26.28H191.269V28.416C191.653 27.68 192.221 27.096 192.973 26.664C193.741 26.232 194.605 26.016 195.565 26.016C197.229 26.016 198.541 26.536 199.501 27.576C200.461 28.616 200.941 30.184 200.941 32.28V32.76C200.941 34.2 200.717 35.408 200.269 36.384C199.821 37.344 199.197 38.064 198.397 38.544C197.597 39.024 196.653 39.264 195.565 39.264C194.653 39.264 193.821 39.064 193.069 38.664C192.317 38.264 191.781 37.704 191.461 36.984V43.8H188.821ZM194.941 36.96C195.933 36.96 196.733 36.616 197.341 35.928C197.949 35.24 198.253 34.184 198.253 32.76V32.28C198.253 30.936 197.957 29.944 197.365 29.304C196.773 28.648 195.965 28.32 194.941 28.32C194.349 28.32 193.781 28.448 193.237 28.704C192.709 28.96 192.277 29.336 191.941 29.832C191.621 30.328 191.461 30.944 191.461 31.68V33.36C191.461 34.16 191.621 34.832 191.941 35.376C192.277 35.904 192.709 36.304 193.237 36.576C193.765 36.832 194.333 36.96 194.941 36.96Z" fill="#DB1E35"/>
<defs>
<clipPath id="clip0_626_6309">
<rect width="40" height="40" fill="white" transform="translate(0 10)"/>
</clipPath>
</defs>
</svg>
