<svg width="35" height="35" viewBox="0 0 35 35" fill="none" xmlns="http://www.w3.org/2000/svg">
<path d="M17.5 1.3999C8.62262 1.3999 1.40002 8.6225 1.40002 17.4999C1.40002 26.3773 8.62262 33.5999 17.5 33.5999C26.3781 33.5999 33.6 26.3773 33.6 17.4999C33.6 8.6225 26.3781 1.3999 17.5 1.3999ZM24.4811 20.6744C26.047 22.0646 26.3725 22.5609 26.4257 22.6456C27.0746 23.6746 25.7061 23.7999 25.7061 23.7999H22.8221C22.8221 23.7999 22.12 23.8076 21.5201 23.41C20.5422 22.7695 19.5181 21.5277 18.7985 21.7433C18.1944 21.9239 18.2 22.7401 18.2 23.438C18.2 23.6879 17.9851 23.7999 17.5 23.7999C17.0149 23.7999 16.8133 23.7999 16.5984 23.7999C15.0185 23.7999 13.3042 23.2679 11.5941 21.4808C9.17492 18.9545 7.05322 13.8655 7.05322 13.8655C7.05322 13.8655 6.92792 13.6093 7.06442 13.4532C7.21912 13.2782 7.63982 13.3006 7.63982 13.3006L10.4363 13.2999C10.4363 13.2999 10.6995 13.3496 10.8885 13.4826C11.0446 13.5918 11.1314 13.8004 11.1314 13.8004C11.1314 13.8004 11.6011 15.3516 12.1996 16.3407C13.3686 18.2713 13.9125 18.3203 14.3094 18.1124C14.889 17.8114 14.7 15.759 14.7 15.759C14.7 15.759 14.7259 14.8777 14.4235 14.485C14.1904 14.1812 13.7445 14.0195 13.5499 13.9943C13.3924 13.974 13.6556 13.6982 13.9909 13.5407C14.4389 13.3412 15.0486 13.2901 16.1 13.2999C16.9183 13.3076 17.1542 13.3566 17.4734 13.4301C18.4387 13.6527 18.2 14.24 18.2 16.3022C18.2 16.963 18.109 17.8919 18.6074 18.1999C18.8223 18.3329 19.5587 18.4953 20.8691 16.3673C21.4914 15.3579 21.9863 13.6835 21.9863 13.6835C21.9863 13.6835 22.0885 13.4994 22.2474 13.4084C22.4098 13.3153 22.4049 13.3174 22.6275 13.3174C22.8501 13.3174 25.0824 13.2999 25.5724 13.2999C26.0617 13.2999 26.5209 13.2943 26.6 13.5813C26.7134 13.9936 26.2388 15.4062 25.0362 16.9392C23.0601 19.455 22.841 19.2198 24.4811 20.6744Z" fill="white" fill-opacity="0.6"/>
</svg>
