<svg width="35" height="35" viewBox="0 0 35 35" fill="none" xmlns="http://www.w3.org/2000/svg">
<path d="M28.3049 5.8335H6.69466H6.69501C5.2286 5.8335 3.8225 6.43426 2.78587 7.50414C1.74888 8.57368 1.16663 10.0244 1.16663 11.5374V23.4633V23.4629C1.16663 24.9759 1.74891 26.4266 2.78587 27.4962C3.8225 28.5661 5.2286 29.1668 6.69501 29.1668H28.3052H28.3049C29.7713 29.1668 31.1774 28.5661 32.214 27.4962C33.251 26.4266 33.8333 24.9759 33.8333 23.4629V11.537V11.5374C33.8333 10.0244 33.251 8.57368 32.214 7.50414C31.1774 6.43424 29.7713 5.8335 28.3049 5.8335ZM23.8977 17.7279L14.0977 22.9131C14.0199 22.9543 13.927 22.9515 13.8523 22.9048C13.7773 22.8585 13.7313 22.775 13.7306 22.6849V12.3145C13.7313 12.2245 13.7773 12.1409 13.8523 12.0946C13.927 12.048 14.0199 12.0451 14.0977 12.0863L23.8977 17.2715C23.9815 17.316 24.0344 17.4049 24.0344 17.5022C24.0344 17.5995 23.9815 17.6885 23.8977 17.733V17.7279Z" fill="white" fill-opacity="0.6"/>
</svg>
