<svg width="32" height="30" viewBox="0 0 32 30" fill="none" xmlns="http://www.w3.org/2000/svg">
<ellipse cx="14.7561" cy="5" rx="2.67109" ry="2.50415" fill="#2D3F57"/>
<path fill-rule="evenodd" clip-rule="evenodd" d="M10.9297 12.5828C7.56891 13.5165 5.11719 16.4333 5.11719 19.887C5.11719 24.0938 8.75486 27.5041 13.2422 27.5041C16.3378 27.5041 19.029 25.8812 20.4006 23.4933L18.8294 21.9197C17.9606 24.0173 15.7866 25.5041 13.2422 25.5041C9.93307 25.5041 7.25052 22.9893 7.25052 19.887C7.25052 17.5532 8.7687 15.5518 10.9297 14.7035V12.5828Z" fill="#2D3F57"/>
<rect x="12.4297" y="8.55892" width="4.625" height="11.4845" rx="2.3125" fill="#2D3F57"/>
<rect x="12.4297" y="13.9495" width="9.5" height="2.10923" rx="1.05461" fill="#2D3F57"/>
<path fill-rule="evenodd" clip-rule="evenodd" d="M13.9532 16.9964C13.1118 16.9964 12.4297 17.6785 12.4297 18.5199C12.4297 19.3614 13.1118 20.0435 13.9532 20.0435H20.5707L23.7877 25.8365C24.2178 26.6109 25.2118 26.9238 26.0079 26.5352C26.804 26.1467 27.1007 25.2039 26.6706 24.4294L23.1183 18.0326C23.0092 17.8361 22.8638 17.6694 22.6946 17.5362C22.4151 17.206 21.9976 16.9964 21.5312 16.9964H13.9532Z" fill="#2D3F57"/>
</svg>
